<svg xmlns="http://www.w3.org/2000/svg" version="1.1" x="0" y="0" viewBox="0 0 155.9 155.9" enable-background="new 0 0 155.9 155.9" xml:space="preserve"><rect x="0" y="0" fill="#ec1c23" width="155.9" height="155.9"/><path fill="#FFFFFF" d="M31.4 59.4c0-5.6-3.5-2.4-3.5-5.9 0-4.5 13.3-5.8 13.8-5.8 2.2 0 2.2 0.6 2.4 2.5 0.1 0.7 0 2 1 2 1.4 0 2.2-4.5 7.1-4.5 3.8 0 6.3 2.8 6.3 6.6 0 3.8-3.2 6.8-7 6.8 -3.7 0-4.7-3.2-6.2-3.2 -1.6 0-1.3 3.8-1.3 4.8 0 1.7 0.2 4.1 0.5 6.3 0.3 2.5 4.7 1 4.7 4.4 0 3.6-5 3.9-11.3 3.9 -2.6 0-10.4 0.1-10.4-3.8 0-2.4 2.6-2.4 3.2-4.4 0.5-1.4 0.6-4.7 0.6-6.3V59.4zM73.7 63.5c-0.6 0-1.5-0.2-1.5 0.8 0 2.8 3.7 5.2 6.4 5.2 4.3 0 6.4-2.6 7.6-2.6 1.2 0 2.2 1.8 2.2 2.8 0 4.4-8 7.6-13.2 7.6 -10.3 0-15.5-7.4-15.5-14.7 0-8.8 7.5-15.1 16-15.1 9.7 0 14 7.5 14 11.7 0 3.8-1.7 4.3-3.5 4.3H73.7zM78.6 56.4c0-2.1-1.3-3.6-3.4-3.6 -1.9 0-3.4 1.9-3.4 3.8 0 2 1.9 1.6 3.4 1.6C76.8 58.1 78.6 58.4 78.6 56.4zM125.4 67c0 4 3 2.7 3 5.6 0 4.3-12.5 4.6-13.1 4.6 -2.9 0-0.9-3.1-2.7-3.1 -0.5 0-1.4 0.8-2.7 1.7 -1.3 0.8-3.1 1.7-5.6 1.7 -7.5 0-13.3-7.9-13.3-14.9 0-7.6 6.2-15 14-15 3.9 0 6.2 1.7 6.8 1.7 0.9 0 0.9-1.9 0.9-2.5 0-3.5-4.2-1.7-4.2-4.7 0-4.2 14.5-5.3 14.7-5.3 1.7 0 2.1 1.2 2.1 3.1V67zM109.5 53.8c-3.8 0-4.5 6.5-4.5 9.2 0 2.7 0.7 7.3 4.2 7.3 3.8 0 3.6-7 3.6-9.5C112.8 58.6 112.8 53.8 109.5 53.8z"/><path fill="#FFFFFF" d="M56.7 104.8c0 10 3.4 4.6 3.4 7.6 0 3.2-4.4 6.8-8.6 6.8 -4.5 0-4.6-2.9-6-2.9 -0.7 0-1.4 0.7-2.7 1.4 -1.3 0.7-3 1.5-5.6 1.5 -4.7 0-9.5-2.5-9.5-8.1 0-4 3.9-9.1 13.9-9.1 1.8 0 2.6 0.1 2.6-1.9 0-1.9-0.1-5.8-2.7-5.8 -3.4 0-3.8 6.2-8.8 6.2 -1.8 0-3.2-1.3-3.2-3.1 0-4.8 9.6-8 15-8 3.2 0 12.1 1.3 12.1 9.8V104.8zM39.6 109.8c0 1.5 0.8 3.1 2.4 3.1 2.2 0 2.3-2.3 2.3-4 0-1.3 0.1-2.7-1.5-2.7C40.9 106.1 39.6 108 39.6 109.8zM77.6 108.9c0 5.5 1.9 4.6 1.9 6.7 0 3.5-7.6 3.4-9.9 3.4 -2.3 0-8.1 0-8.1-3.4 0-2.7 2.6-0.3 2.8-5.9l0.2-8.5c0.1-4.2-3.4-2.8-3.4-5.9 0-3 13.1-5.9 14.2-5.9 1.3 0 2 1.1 2 2.2 0 0.3-0.1 0.7-0.1 1 0 0.7 0.3 1.5 1.1 1.5 0.9 0 1.4-1.2 2.6-2.4 1.1-1.1 2.8-2.3 6.1-2.3 11.8 0 9.8 11.6 10.4 20.2 0.3 4.5 2.6 3.5 2.6 5.9 0 1 0.2 3.4-10.5 3.4 -2 0-7.5 0.1-7.5-3.1 0-2 1.9-1.1 2.2-4.8 0.3-4 1.9-13.2-3.5-13.2 -3.6 0-3.3 3.9-3.3 6.5V108.9zM118.9 106.1c0 3.8 1.6 4.7 3.1 4.7 1.8 0 2.8-1.3 3.8-1.3 1.1 0 1.9 1.6 1.9 2.6 0 3.8-6.5 7.1-12.2 7.1 -2.9 0-10.2-1.3-10.2-10.3V97.1c0-1 0-1.4-0.3-1.6 -0.3-0.2-0.9-0.1-2.2-0.1 -1.5 0-2.2 0.1-2.5-0.2 -0.4-0.4-0.3-1-0.3-2.3 0-0.8-0.2-1.4 0.5-1.9l13-8.3c1.3-0.8 1.3-0.6 3-0.6 2.3 0 2.4-0.2 2.4 2.4 0 1.8-0.1 3.5 0.2 4.2 0.2 0.5 0.6 0.5 2.1 0.5h4c2.4 0 2.4 0.2 2.4 2.7 0 3.2-0.4 3.5-2.6 3.5H121c-2 0-2.1 0.1-2.1 2.1V106.1z"/></svg>